<?xml version="1.0" encoding="UTF-8"?>
<svg version="1.1" xmlns="http://www.w3.org/2000/svg" width="1920" height="1920">
<path d="M0 0 C89.43 0 178.86 0 271 0 C277.38581561 15.67427467 283.76194674 31.33464283 289.92382812 47.09570312 C292.7605267 54.34654345 295.60244626 61.59532655 298.4453125 68.84375 C298.92272888 70.06147095 299.40014526 71.27919189 299.89202881 72.53381348 C304.07396618 83.19743866 308.28231959 93.85047216 312.5 104.5 C318.98746556 120.88443207 325.43654042 137.28375304 331.875 153.6875 C339.10556139 172.10910607 346.36329426 190.51958231 353.65618896 208.91659546 C360.60878664 226.45762507 367.51261814 244.01756398 374.40576172 261.58203125 C380.7443241 277.73179687 387.10651494 293.87190093 393.5 310 C400.8388679 328.5129061 408.13055362 347.04402271 415.40576172 365.58203125 C421.7443241 381.73179687 428.10651494 397.87190093 434.5 414 C441.8388679 432.5129061 449.13055362 451.04402271 456.40576172 469.58203125 C462.7443241 485.73179687 469.10651494 501.87190093 475.5 518 C482.8388679 536.5129061 490.13055362 555.04402271 497.40576172 573.58203125 C503.74432414 589.73179697 510.10653842 605.87189156 516.5 622 C523.40742457 639.42482644 530.27647385 656.86444169 537.125 674.3125 C543.71072277 691.09066079 550.30636036 707.86473157 556.9375 724.625 C557.28432831 725.50166321 557.63115662 726.37832642 557.98849487 727.28155518 C559.68281391 731.56395013 561.37747146 735.84621103 563.07226562 740.12841797 C566.11364809 747.8136051 569.15181712 755.5000598 572.1875 763.1875 C572.48401459 763.93833862 572.78052917 764.68917725 573.08602905 765.46276855 C579.47146966 781.6355302 585.82208227 797.82195674 592.1758728 814.00717163 C598.97303506 831.31964048 605.79968275 848.62012716 612.65362549 865.91018677 C619.17567335 882.36526227 625.65774772 898.83581692 632.125 915.3125 C638.71072277 932.09066079 645.30636036 948.86473157 651.9375 965.625 C652.28432831 966.50166321 652.63115662 967.37832642 652.98849487 968.28155518 C654.68281391 972.56395013 656.37747146 976.84621103 658.07226562 981.12841797 C661.11364809 988.8136051 664.15181712 996.5000598 667.1875 1004.1875 C667.48401459 1004.93833862 667.78052917 1005.68917725 668.08602905 1006.46276855 C674.47146966 1022.6355302 680.82208227 1038.82195674 687.1758728 1055.00717163 C693.97369564 1072.32132297 700.80093808 1089.62351883 707.65563965 1106.91522217 C714.60842188 1124.45670901 721.51243801 1142.01710499 728.40576172 1159.58203125 C734.74432414 1175.73179697 741.10653842 1191.87189156 747.5 1208 C755.34325133 1227.78556432 763.13415901 1247.59140168 770.9074707 1267.40454102 C775.27700991 1278.53940926 779.65533692 1289.67057175 784.06640625 1300.7890625 C784.46281311 1301.788806 784.85921997 1302.7885495 785.26763916 1303.81858826 C787.11223447 1308.46994137 788.95933718 1313.12026876 790.81103516 1317.76879883 C791.46135284 1319.40702815 792.11158586 1321.04529109 792.76171875 1322.68359375 C793.04817764 1323.39975861 793.33463654 1324.11592346 793.629776 1324.85379028 C795.05698255 1328.45727189 796.38055832 1332.07449883 797.59700012 1335.75502014 C797.86143323 1336.55351411 798.12586634 1337.35200808 798.39831257 1338.17469883 C798.59686942 1338.77704822 798.79542627 1339.3793976 799 1340 C772.20836785 1340.17232472 745.41670044 1340.33864347 718.625 1340.5 C717.63846451 1340.50594854 716.65192903 1340.51189708 715.63549852 1340.51802588 C665.81951135 1340.81806946 616.00459032 1341.10447775 566.1875 1341.0625 C565.16372505 1341.06164398 564.1399501 1341.06078796 563.08515167 1341.05990601 C551.3900783 1341.04933161 539.69503805 1341.03078542 528 1341 C525.36052656 1335.26786686 522.73087831 1329.55651505 520.484375 1323.65625 C520.04754395 1322.51679932 519.61071289 1321.37734863 519.16064453 1320.20336914 C518.69513184 1318.98125732 518.22961914 1317.75914551 517.75 1316.5 C516.68232595 1313.71643039 515.61108253 1310.93424217 514.5390625 1308.15234375 C514.25614349 1307.41777451 513.97322449 1306.68320526 513.68173218 1305.92637634 C510.21833441 1296.94985787 506.6701764 1288.0069559 503.125 1279.0625 C496.42755279 1262.15785424 489.76764943 1245.23875077 483.125 1228.3125 C475.89466685 1209.89080479 468.63670542 1191.48041687 461.34381104 1173.08340454 C454.39121336 1155.54237493 447.48738186 1137.98243602 440.59423828 1120.41796875 C434.2556759 1104.26820313 427.89348506 1088.12809907 421.5 1072 C414.1611321 1053.4870939 406.86944638 1034.95597729 399.59423828 1016.41796875 C393.2556759 1000.26820313 386.89348506 984.12809907 380.5 968 C373.1611321 949.4870939 365.86944638 930.95597729 358.59423828 912.41796875 C352.2556759 896.26820313 345.89348506 880.12809907 339.5 864 C332.1611321 845.4870939 324.86944638 826.95597729 317.59423828 808.41796875 C311.2556759 792.26820313 304.89348506 776.12809907 298.5 760 C291.1611321 741.4870939 283.86944638 722.95597729 276.59423828 704.41796875 C270.2556759 688.26820313 263.89348506 672.12809907 257.5 656 C250.63382297 638.67949601 243.806693 621.34396456 237 604 C230.04612486 586.28159957 223.07301303 568.57107222 216.0625 550.875 C215.47150009 549.38311157 215.47150009 549.38311157 214.86856079 547.86108398 C213.32368313 543.96147169 211.77868223 540.06190825 210.23350525 536.16241455 C206.71286964 527.27703545 203.1974166 518.38961877 199.6875 509.5 C199.39453033 508.75802368 199.10156067 508.01604736 198.79971313 507.25158691 C192.45275894 491.17335676 186.140113 475.08165291 179.82357788 458.99145508 C173.02593985 441.67776079 166.19888025 424.37602289 159.34436035 407.08477783 C152.39157812 389.54329099 145.48756199 371.98289501 138.59423828 354.41796875 C132.2556759 338.26820313 125.89348506 322.12809907 119.5 306 C112.1611321 287.4870939 104.86944638 268.95597729 97.59423828 250.41796875 C91.2556759 234.26820313 84.89348506 218.12809907 78.5 202 C71.1611321 183.4870939 63.86944638 164.95597729 56.59423828 146.41796875 C49.87775252 129.3053075 43.13145711 112.20479642 36.35635376 95.11526489 C28.65597435 75.6892284 21.01297901 56.24080313 13.3828125 36.78710938 C12.93845856 35.65471832 12.49410461 34.52232727 12.0362854 33.35562134 C11.17889241 31.17029014 10.32208242 28.9847301 9.46591187 26.79891968 C7.67890337 22.24286754 5.88353801 17.69159416 4.03369141 13.16064453 C3.74657791 12.4554921 3.45946442 11.75033966 3.16365051 11.02381897 C2.43208142 9.23466649 1.69357123 7.4483562 0.9543457 5.66235352 C0 3 0 3 0 0 Z " fill="#000000" transform="translate(337,366)"/>
<path d="M0 0 C0.89589621 0.00291284 1.79179243 0.00582568 2.71483701 0.00882679 C4.13106954 0.00754515 4.13106954 0.00754515 5.57591283 0.00623763 C8.76513827 0.00457994 11.95431204 0.0101089 15.14353269 0.01555592 C17.41951331 0.01583775 19.69549402 0.01568013 21.97147459 0.01511341 C28.17163876 0.0148253 34.37178377 0.02072429 40.57194346 0.02768737 C47.04355438 0.03391858 53.51516569 0.03452452 59.98677915 0.03571278 C70.85592866 0.0384725 81.72507027 0.04472805 92.59421629 0.05364186 C103.79148155 0.06281523 114.9887449 0.06989643 126.18601316 0.07414967 C127.22061304 0.07454375 127.22061304 0.07454375 128.27611393 0.0749458 C131.73616375 0.0762508 135.19621358 0.07751452 138.65626341 0.0787577 C167.37915678 0.08913122 196.1020427 0.10682444 224.82492918 0.12908131 C224.15960053 3.64432017 223.29430761 6.69238979 221.87326902 9.98039967 C221.46616194 10.929054 221.05905485 11.87770832 220.63961118 12.85510975 C220.1928755 13.8826688 219.74613981 14.91022785 219.28586668 15.96892506 C218.58319418 17.60144467 218.58319418 17.60144467 217.86632627 19.26694447 C216.5836449 22.24518344 215.29681833 25.2215912 214.0084123 28.19735676 C212.64403102 31.35182581 211.28543692 34.50878355 209.92673582 37.6657024 C209.37048294 38.95800247 208.81422375 40.25029982 208.25795835 41.54259449 C207.9804845 42.187234 207.70301065 42.83187351 207.4171285 43.49604756 C206.56524246 45.4745376 205.71272542 47.45275466 204.86003965 49.43090016 C199.28962221 62.35584558 193.77154173 75.30289701 188.26242918 88.25408131 C187.31132145 90.48864638 186.36014935 92.72318404 185.40891355 94.95769459 C183.02601024 100.5556391 180.64376657 106.15386402 178.26175779 111.75218922 C173.90890043 121.98244874 169.55518342 132.21234195 165.19992918 142.44158131 C164.72224088 143.56356922 164.24455259 144.68555714 163.75238889 145.84154469 C156.53665766 162.78733743 149.291692 179.72041932 142.03037351 196.64672047 C132.2219263 219.51262264 122.47498771 242.40459482 112.73215574 265.2985149 C107.45446224 277.69952323 102.17177381 290.09840491 96.88999265 302.49767262 C95.45421102 305.8682851 94.01846296 309.23891187 92.58274168 312.60955006 C92.10876951 313.72229298 91.63479734 314.8350359 91.14646238 315.9814983 C88.25026399 322.78134328 85.35524139 329.58168759 82.46109861 336.38240772 C72.34654168 360.14968794 62.21382097 383.90886919 52.03037351 407.64672047 C45.147029 423.69348901 38.28971632 439.75119938 31.44992918 455.81658131 C30.97466795 456.93287922 30.49940672 458.04917713 30.00974363 459.19930226 C27.10680448 466.01826991 24.20461425 472.83755615 21.30259031 479.65691334 C16.81121042 490.21063574 12.31851789 500.76379921 7.82492918 511.31658131 C7.33784483 512.46049336 6.85076048 513.60440541 6.34891599 514.78298146 C0.40327373 528.74494513 -5.55550002 542.70110215 -11.54079348 556.64611012 C-17.44349939 570.4007857 -23.31122263 584.17030129 -29.17507082 597.94158131 C-29.66096682 599.08269367 -30.14686281 600.22380604 -30.64748293 601.39949757 C-34.15723836 609.64245401 -37.66623271 617.88573435 -41.17507082 626.12908131 C-45.17456456 635.52513023 -49.17436727 644.92104743 -53.17507082 654.31658131 C-53.66161135 655.45922444 -54.14815188 656.60186756 -54.64943606 657.77913624 C-60.59562868 671.74238118 -66.55495003 685.69982074 -72.54079348 699.64611012 C-81.46253779 720.43584627 -90.31036827 741.25716657 -99.17116457 762.07292897 C-104.4794629 774.54275029 -109.7911715 787.0111194 -115.10231692 799.47972828 C-116.53284069 802.8380968 -117.96334032 806.19647561 -119.39382082 809.55486256 C-119.86658449 810.66478565 -120.33934817 811.77470875 -120.82643801 812.91826588 C-123.78257499 819.85881594 -126.737847 826.79973372 -129.69254214 833.74089772 C-140.82117231 859.88415408 -151.96129273 886.02221556 -163.17507082 912.12908131 C-165.55922168 909.98128888 -166.7805395 908.15504967 -167.92995363 905.16887623 C-168.24230959 904.3692194 -168.55466555 903.56956257 -168.87648684 902.74567372 C-169.2070508 901.87575291 -169.53761477 901.0058321 -169.87819582 900.10955006 C-170.40932986 898.74092068 -170.40932986 898.74092068 -170.95119387 897.34464222 C-172.1163246 894.33800793 -173.270522 891.32729304 -174.42507082 888.31658131 C-175.24155258 886.20539277 -176.05894588 884.09455655 -176.87721926 881.98406178 C-178.53523219 877.70679455 -180.1901497 873.42835018 -181.84303957 869.14910084 C-184.70960134 861.7376375 -187.62464524 854.34574858 -190.55190188 846.95809132 C-192.0589492 843.15407676 -193.56244062 839.34865822 -195.06569582 835.54314381 C-195.38145571 834.74384953 -195.6972156 833.94455525 -196.02254397 833.12103993 C-200.75689074 821.13034988 -205.46354205 809.12874993 -210.17507082 797.12908131 C-216.61627707 780.72475452 -223.06487151 764.32347355 -229.54280764 747.93361622 C-235.87519876 731.91003832 -242.17165245 715.87237386 -248.46593386 699.83379322 C-253.40172058 687.25706701 -258.34463756 674.68337024 -263.32741457 662.12517506 C-263.72756777 661.11606571 -264.12772097 660.10695637 -264.54000002 659.06726795 C-266.41034982 654.35128552 -268.28330937 649.6363708 -270.16091067 644.92327076 C-270.81806783 643.26795301 -271.47513716 641.61260037 -272.13210207 639.95720631 C-272.42890368 639.21518467 -272.72570528 638.47316303 -273.03150088 637.70865589 C-276.44575283 629.08822498 -276.44575283 629.08822498 -275.54569155 625.89891773 C-275.18950243 625.08187367 -274.83331331 624.2648296 -274.46633059 623.42302662 C-274.06227999 622.48072193 -273.65822939 621.53841725 -273.24193484 620.56755787 C-272.78803377 619.54114186 -272.33413271 618.51472584 -271.86647707 617.45720631 C-271.39775179 616.37246022 -270.92902651 615.28771412 -270.44609743 614.17009693 C-269.15708154 611.1922387 -267.85811735 608.21895881 -266.55498034 605.24726063 C-265.17930788 602.10317828 -263.81687561 598.95337383 -262.45363528 595.803886 C-260.462784 591.20698116 -258.46836624 586.61165759 -256.4694348 582.01826054 C-251.38423132 570.3306677 -246.37345686 558.61151305 -241.36424929 546.89116627 C-233.46033889 528.40571452 -225.51210102 509.9395995 -217.53243166 491.48674732 C-210.82067891 475.96374297 -204.14704867 460.42457933 -197.48757082 444.87908131 C-196.9853702 443.70679981 -196.48316958 442.53451832 -195.96575075 441.32671314 C-192.36798624 432.92787555 -188.77140088 424.52853321 -185.17507082 416.12908131 C-181.07170099 406.54540657 -176.96783123 396.96194638 -172.86257082 387.37908131 C-172.10866564 385.61920887 -172.10866564 385.61920887 -171.33953005 383.82378346 C-164.43109006 367.69959001 -157.49502253 351.58762248 -150.53243166 335.48674732 C-140.71846647 312.78891712 -130.98946254 290.05472385 -121.25563723 267.32244068 C-118.22359117 260.24179676 -115.18985661 253.16187729 -112.15553957 246.08220631 C-111.66172793 244.93003117 -111.16791628 243.77785603 -110.65914065 242.59076649 C-108.16576428 236.77330389 -105.67218649 230.95592766 -103.17848879 225.13860279 C-98.66588639 214.6110186 -94.15447644 204.08293229 -89.6494208 193.55211598 C-79.36397601 169.50966655 -69.04362888 145.48375509 -58.61257082 121.50408131 C-50.76927487 103.47216957 -42.99859199 85.4107928 -35.30007082 67.31658131 C-34.82324862 66.19593281 -34.34642641 65.07528431 -33.85515505 63.92067677 C-29.31001612 53.23516881 -24.77361744 42.54597218 -20.24663454 31.8527599 C-18.63976115 28.05761839 -17.03141618 24.26310125 -15.42305666 20.46858937 C-14.32552449 17.8766919 -13.23089335 15.28358319 -12.1364966 12.69036061 C-11.48540947 11.15295741 -10.83421228 9.61560082 -10.18288332 8.07830006 C-9.74250735 7.03107777 -9.74250735 7.03107777 -9.29323488 5.96269947 C-6.82733469 0.15622627 -6.3916666 0.0157764 0 0 Z " fill="#000000" transform="translate(1314.175070822239,792.8709186911583)"/>
<path d="M0 0 C1.06679861 0.00002787 2.13359722 0.00005574 3.23272306 0.00008446 C30.71040207 0.00102372 58.18807459 0.01162905 85.66574967 0.02562964 C101.61123187 0.03366309 117.55671348 0.03905291 133.50219727 0.04272461 C134.63989934 0.04298733 135.7776014 0.04325006 136.94977929 0.04352074 C142.66242819 0.04482663 148.37507709 0.04609013 154.087726 0.04733264 C200.80458089 0.05754757 247.52143083 0.0750202 294.23828125 0.09765625 C293.76321001 1.53788088 293.28684482 2.97767873 292.80993462 4.41729546 C292.41222935 5.620045 292.41222935 5.620045 292.00648963 6.84709251 C291.1170794 9.45273241 290.0972686 11.97100725 288.99267578 14.49267578 C288.57388657 15.4542308 288.15509735 16.41578583 287.72361755 17.40647888 C287.2772847 18.42089554 286.83095184 19.43531219 286.37109375 20.48046875 C285.90014786 21.55986221 285.42920197 22.63925568 284.94398499 23.75135803 C283.93976773 26.05248691 282.9339325 28.35291029 281.92660522 30.65267944 C279.29119418 36.67085384 276.66890672 42.69473693 274.046875 48.71875 C273.53322891 49.89836807 273.01958282 51.07798615 272.4903717 52.29335022 C268.73439896 60.92974027 265.04227916 69.58955747 261.42578125 78.28515625 C254.67986933 94.49608092 247.74938366 110.62629086 240.81872559 126.75889587 C237.91463096 133.51946799 235.01663115 140.28263385 232.12109375 147.046875 C231.28475451 149.00024635 230.44841018 150.95361552 229.61206055 152.90698242 C228.40018305 155.73748924 227.18844672 158.56805598 225.97720337 161.39883423 C224.86556516 163.99659611 223.75318034 166.59403705 222.640625 169.19140625 C222.30922516 169.96638962 221.97782532 170.74137299 221.63638306 171.5398407 C219.35219277 176.86983321 219.35219277 176.86983321 218.23828125 179.09765625 C204.76015487 181.13757863 190.5472765 180.23422668 176.96142578 180.21289062 C174.40014525 180.21248074 171.83886462 180.21246785 169.27758408 180.21281433 C162.98844706 180.21272641 156.69932733 180.20690357 150.41019568 180.19907355 C145.17250304 180.19266635 139.93481262 180.18854624 134.69711685 180.18577576 C55.78768174 180.14296282 -23.12150838 179.89505391 -102.03052974 179.65227509 C-116.14665251 179.6088794 -130.26277823 179.56655564 -144.37890625 179.52490234 C-145.39108586 179.52191535 -146.40326546 179.51892835 -147.44611718 179.51585084 C-152.5301786 179.50085279 -157.61424006 179.48587155 -162.69830155 179.47089863 C-204.05278192 179.3490855 -245.40725327 179.22441895 -286.76171875 179.09765625 C-286.14765269 175.17653748 -285.40422021 171.81069898 -283.82592773 168.16455078 C-283.42200302 167.22233673 -283.01807831 166.28012268 -282.60191345 165.30935669 C-282.15836014 164.29332367 -281.71480682 163.27729065 -281.2578125 162.23046875 C-280.79214371 161.14909637 -280.32647491 160.067724 -279.84669495 158.95358276 C-278.57090181 155.99398384 -277.28931277 153.03697647 -276.00531006 150.08093262 C-274.64236609 146.93894792 -273.2872591 143.79358804 -271.93164062 140.6484375 C-269.95384598 136.06132399 -267.97397346 131.47511902 -265.9913578 126.89008713 C-261.04463521 115.449342 -256.13718408 103.99184727 -251.23251343 92.53302002 C-249.26793117 87.94430699 -247.30114184 83.35654141 -245.33436584 78.76876831 C-241.1187213 68.93510558 -236.90616929 59.10012526 -232.69732666 49.2635498 C-230.7379473 44.68427865 -228.77778559 40.1053425 -226.81744766 35.52648163 C-225.47610306 32.39326409 -224.13522166 29.25985001 -222.79541016 26.12597656 C-221.31911715 22.67336334 -219.84135832 19.221381 -218.36328125 15.76953125 C-217.92488922 14.74317566 -217.48649719 13.71682007 -217.03482056 12.65936279 C-216.63097137 11.71699768 -216.22712219 10.77463257 -215.81103516 9.80371094 C-215.28674423 8.57814484 -215.28674423 8.57814484 -214.75186157 7.32781982 C-213.81440787 5.2163314 -212.80159291 3.16009317 -211.76171875 1.09765625 C-141.17442069 0.21486569 -70.59212234 -0.00255062 0 0 Z " fill="#000000" transform="translate(1450.76171875,603.90234375)"/>
</svg>
